<mxfile host="app.diagrams.net" agent="Mozilla/5.0 (Windows NT 10.0; Win64; x64) AppleWebKit/537.36 (KHTML, like Gecko) Chrome/126.0.0.0 Safari/537.36" version="24.7.17">
  <diagram name="第 1 页" id="xHlzmaMYoGWHPqfO1GM6">
    <mxGraphModel dx="1659" dy="749" grid="0" gridSize="10" guides="1" tooltips="1" connect="1" arrows="1" fold="1" page="0" pageScale="1" pageWidth="827" pageHeight="1169" math="0" shadow="0">
      <root>
        <mxCell id="0" />
        <mxCell id="1" parent="0" />
        <mxCell id="U6JTos2uTmHhP3pjmQ6T-12" value="" style="rounded=1;whiteSpace=wrap;html=1;" vertex="1" parent="1">
          <mxGeometry x="142" y="664" width="651" height="84" as="geometry" />
        </mxCell>
        <mxCell id="U6JTos2uTmHhP3pjmQ6T-13" style="edgeStyle=orthogonalEdgeStyle;rounded=0;orthogonalLoop=1;jettySize=auto;html=1;exitX=0.5;exitY=1;exitDx=0;exitDy=0;entryX=0.5;entryY=0;entryDx=0;entryDy=0;" edge="1" parent="1" source="U6JTos2uTmHhP3pjmQ6T-8" target="U6JTos2uTmHhP3pjmQ6T-11">
          <mxGeometry relative="1" as="geometry" />
        </mxCell>
        <mxCell id="U6JTos2uTmHhP3pjmQ6T-8" value="&lt;span style=&quot;text-align: left;&quot;&gt;&lt;b&gt;publishingAbnormalPatrolImages()&lt;/b&gt;&lt;/span&gt;" style="rounded=1;whiteSpace=wrap;html=1;" vertex="1" parent="1">
          <mxGeometry x="110" y="487" width="260" height="65" as="geometry" />
        </mxCell>
        <mxCell id="U6JTos2uTmHhP3pjmQ6T-1" value="&lt;b&gt;&lt;i&gt;REASON_ANALYSIS_SERVICE&lt;/i&gt;&lt;/b&gt;" style="rounded=1;whiteSpace=wrap;html=1;" vertex="1" parent="1">
          <mxGeometry x="493" y="409" width="220" height="65" as="geometry" />
        </mxCell>
        <mxCell id="U6JTos2uTmHhP3pjmQ6T-3" value="新处理器" style="text;html=1;align=center;verticalAlign=middle;whiteSpace=wrap;rounded=0;" vertex="1" parent="1">
          <mxGeometry x="573" y="379" width="60" height="30" as="geometry" />
        </mxCell>
        <mxCell id="U6JTos2uTmHhP3pjmQ6T-9" style="edgeStyle=orthogonalEdgeStyle;rounded=0;orthogonalLoop=1;jettySize=auto;html=1;exitX=0.5;exitY=1;exitDx=0;exitDy=0;entryX=0.5;entryY=0;entryDx=0;entryDy=0;" edge="1" parent="1" source="U6JTos2uTmHhP3pjmQ6T-4" target="U6JTos2uTmHhP3pjmQ6T-8">
          <mxGeometry relative="1" as="geometry" />
        </mxCell>
        <mxCell id="U6JTos2uTmHhP3pjmQ6T-4" value="&lt;b&gt;&lt;i&gt;ABNORMAL_PATROL_TASK_SERVICE&lt;/i&gt;&lt;/b&gt;" style="rounded=1;whiteSpace=wrap;html=1;" vertex="1" parent="1">
          <mxGeometry x="110" y="315" width="260" height="65" as="geometry" />
        </mxCell>
        <mxCell id="U6JTos2uTmHhP3pjmQ6T-6" value="&lt;article class=&quot;4ever-article&quot; data-clipboard-cangjie=&quot;[&amp;quot;root&amp;quot;,{},[&amp;quot;p&amp;quot;,{},[&amp;quot;span&amp;quot;,{&amp;quot;data-type&amp;quot;:&amp;quot;text&amp;quot;},[&amp;quot;span&amp;quot;,{&amp;quot;bold&amp;quot;:true,&amp;quot;fonts&amp;quot;:{&amp;quot;hint&amp;quot;:&amp;quot;eastAsia&amp;quot;},&amp;quot;data-type&amp;quot;:&amp;quot;leaf&amp;quot;},&amp;quot;/&amp;quot;],[&amp;quot;span&amp;quot;,{&amp;quot;bold&amp;quot;:true,&amp;quot;data-type&amp;quot;:&amp;quot;leaf&amp;quot;},&amp;quot;abnormal_diagnosis&amp;quot;]]]]&quot;&gt;&lt;p style=&quot;text-align:left;text-indent:0;margin-left:0;margin-top:0;margin-bottom:0&quot;&gt;&lt;br&gt;&lt;/p&gt;&lt;/article&gt;" style="text;whiteSpace=wrap;html=1;" vertex="1" parent="1">
          <mxGeometry x="-176" y="647" width="160" height="40" as="geometry" />
        </mxCell>
        <mxCell id="U6JTos2uTmHhP3pjmQ6T-10" value="异常点信息落库&lt;div&gt;（此时并没有setReason这个环节）&lt;/div&gt;" style="text;html=1;align=center;verticalAlign=middle;whiteSpace=wrap;rounded=0;" vertex="1" parent="1">
          <mxGeometry x="-119" y="508" width="202" height="30" as="geometry" />
        </mxCell>
        <mxCell id="U6JTos2uTmHhP3pjmQ6T-15" style="edgeStyle=orthogonalEdgeStyle;rounded=0;orthogonalLoop=1;jettySize=auto;html=1;exitX=1;exitY=0.5;exitDx=0;exitDy=0;" edge="1" parent="1" source="U6JTos2uTmHhP3pjmQ6T-11" target="U6JTos2uTmHhP3pjmQ6T-14">
          <mxGeometry relative="1" as="geometry" />
        </mxCell>
        <mxCell id="U6JTos2uTmHhP3pjmQ6T-11" value="&lt;span style=&quot;text-align: left; font-weight: bold; font-family: undefined, undefined, undefined, undefined;&quot;&gt;/&lt;/span&gt;&lt;span style=&quot;text-align: left; font-weight: bold;&quot;&gt;abnormal_diagnosis&lt;/span&gt;" style="rounded=1;whiteSpace=wrap;html=1;fillColor=#f5f5f5;gradientColor=#b3b3b3;strokeColor=#666666;" vertex="1" parent="1">
          <mxGeometry x="157.5" y="682" width="165" height="50" as="geometry" />
        </mxCell>
        <mxCell id="U6JTos2uTmHhP3pjmQ6T-16" style="edgeStyle=orthogonalEdgeStyle;rounded=0;orthogonalLoop=1;jettySize=auto;html=1;exitX=0.5;exitY=0;exitDx=0;exitDy=0;entryX=0.5;entryY=1;entryDx=0;entryDy=0;" edge="1" parent="1" source="U6JTos2uTmHhP3pjmQ6T-14" target="U6JTos2uTmHhP3pjmQ6T-1">
          <mxGeometry relative="1" as="geometry" />
        </mxCell>
        <mxCell id="U6JTos2uTmHhP3pjmQ6T-14" value="&lt;div style=&quot;text-align: left;&quot;&gt;&lt;span style=&quot;background-color: initial;&quot;&gt;&lt;font face=&quot;undefined, undefined, undefined, undefined&quot;&gt;&lt;b&gt;分析异常点的原因&lt;/b&gt;&lt;/font&gt;&lt;/span&gt;&lt;/div&gt;" style="rounded=1;whiteSpace=wrap;html=1;fillColor=#f5f5f5;gradientColor=#b3b3b3;strokeColor=#666666;" vertex="1" parent="1">
          <mxGeometry x="520.5" y="682" width="165" height="50" as="geometry" />
        </mxCell>
        <mxCell id="U6JTos2uTmHhP3pjmQ6T-17" value="传参：&lt;div&gt;taskId：新任务，所以生成新的id&lt;/div&gt;&lt;div&gt;domain:&lt;/div&gt;&lt;div&gt;inputDir:无人机影像的目录&lt;/div&gt;&lt;div&gt;collectDate：&lt;/div&gt;&lt;div&gt;farmId：&lt;/div&gt;&lt;div&gt;provinceCode：&lt;/div&gt;" style="text;html=1;align=left;verticalAlign=middle;resizable=0;points=[];autosize=1;strokeColor=none;fillColor=none;" vertex="1" parent="1">
          <mxGeometry x="113" y="816" width="191" height="113" as="geometry" />
        </mxCell>
      </root>
    </mxGraphModel>
  </diagram>
</mxfile>
